<?xml version="1.0" standalone="no"?>
<!DOCTYPE svg PUBLIC "-//W3C//DTD SVG 1.1//EN" "http://www.w3.org/Graphics/SVG/1.1/DTD/svg11.dtd" >
<svg xmlns="http://www.w3.org/2000/svg">
<metadata>Generated by IcoMoon</metadata>
<defs>
<font id="icomoon" horiz-adv-x="1024">
<font-face units-per-em="1024" ascent="960" descent="-64" />
<missing-glyph horiz-adv-x="1024" />
<glyph unicode="&#x20;" horiz-adv-x="512" d="" />
<glyph unicode="&#xe900;" glyph-name="test" d="M905.771 783.36l-0.256-142.080h-452.267c-9.344 0-16.939-7.723-16.939-17.024 0-9.429 7.68-17.024 16.939-17.024l117.76 0.683c185.429 0 335.701-150.4 335.701-335.744 0-185.515-150.272-335.744-335.744-335.744l-453.717-0.427 0.213 144h453.76c106.112 0 192.171 86.016 192.171 192.171 0 106.24-86.059 192.256-192.256 192.256l-118.229 1.28c-87.893 0-159.019 71.083-159.019 158.72 0 87.936 71.083 158.976 158.848 158.976h453.035zM117.888 113.365l-0.171 142.123h452.651c8.96 0 16.341 7.467 16.341 16.512 0 9.088-7.381 16.427-16.384 16.427h-117.077c-185.387 0-335.659 150.4-335.659 335.829s150.272 335.744 335.659 335.744l452.267-0.128 0.256-142.933-452.437-0.128c-106.24 0-192-86.144-192-192.299 0-106.197 86.357-192.171 192.64-192.171l118.4-1.28c87.68 0 158.72-71.168 158.72-158.891 0-87.68-71.040-158.677-158.72-158.677l-454.485-0.128z" />
<glyph unicode="&#xe901;" glyph-name="delivery" d="M168.229 282.697h130.194c-1.463-2.926-1.463-4.389-1.463-7.314 0-40.96 33.646-74.606 74.606-74.606 42.423 0 76.069 33.646 74.606 74.606 0 2.926-1.463 4.389-1.463 7.314h175.543c-1.463-2.926-1.463-4.389-1.463-7.314 0-40.96 33.646-74.606 74.606-74.606s74.606 33.646 74.606 74.606c0 2.926-1.463 4.389-1.463 7.314h89.234v29.257h-30.72v184.32l-124.343 150.674h-140.434v-334.994h-124.343c-13.166 21.943-36.571 38.034-64.366 38.034s-51.2-16.091-64.366-38.034h-138.971v-29.257zM648.046 275.383c0 24.869 20.48 45.349 45.349 45.349s45.349-19.017 45.349-45.349c0-24.869-20.48-45.349-45.349-45.349s-45.349 20.48-45.349 45.349zM590.994 617.691h95.086l109.714-133.12v-172.617h-38.034c-13.166 21.943-36.571 38.034-64.366 38.034s-51.2-16.091-64.366-38.034h-38.034v305.737zM326.217 275.383c0 24.869 20.48 45.349 45.349 45.349s45.349-19.017 45.349-45.349c0-24.869-20.48-45.349-45.349-45.349s-45.349 20.48-45.349 45.349zM190.171 369.006h340.846v326.217h-340.846v-326.217zM220.891 665.966h280.869v-266.24h-280.869v266.24zM762.149 483.109l-81.92 102.4h-65.829v-102.4h147.749zM699.246 512.366h-55.589v42.423h21.943l33.646-42.423zM389.12 468.48l64.366 64.366-64.366 62.903-19.017-19.017 27.794-29.257h-130.194l1.463-29.257 128.731 1.463-29.257-30.72z" />
<glyph unicode="&#xe902;" glyph-name="delivery_1" d="M168.229 282.697h130.194c-1.463-2.926-1.463-4.389-1.463-7.314 0-40.96 33.646-74.606 74.606-74.606 42.423 0 76.069 33.646 74.606 74.606 0 2.926-1.463 4.389-1.463 7.314h175.543c-1.463-2.926-1.463-4.389-1.463-7.314 0-40.96 33.646-74.606 74.606-74.606s74.606 33.646 74.606 74.606c0 2.926-1.463 4.389-1.463 7.314h89.234v29.257h-30.72v184.32l-124.343 150.674h-140.434v-334.994h-124.343c-13.166 21.943-36.571 38.034-64.366 38.034s-51.2-16.091-64.366-38.034h-138.971v-29.257zM648.046 275.383c0 24.869 20.48 45.349 45.349 45.349s45.349-19.017 45.349-45.349c0-24.869-20.48-45.349-45.349-45.349s-45.349 20.48-45.349 45.349zM590.994 617.691h95.086l109.714-133.12v-172.617h-38.034c-13.166 21.943-36.571 38.034-64.366 38.034s-51.2-16.091-64.366-38.034h-38.034v305.737zM326.217 275.383c0 24.869 20.48 45.349 45.349 45.349s45.349-19.017 45.349-45.349c0-24.869-20.48-45.349-45.349-45.349s-45.349 20.48-45.349 45.349zM190.171 369.006h340.846v326.217h-340.846v-326.217zM220.891 665.966h280.869v-266.24h-280.869v266.24zM762.149 483.109l-81.92 102.4h-65.829v-102.4h147.749zM699.246 512.366h-55.589v42.423h21.943l33.646-42.423zM389.12 468.48l64.366 64.366-64.366 62.903-19.017-19.017 27.794-29.257h-130.194l1.463-29.257 128.731 1.463-29.257-30.72z" />
<glyph unicode="&#xe903;" glyph-name="easy_integration" d="M830.371 392.145l1.862 98.676-93.091 16.756c-3.724 16.756-11.171 33.513-20.48 50.269l55.855 76.335-67.025 68.887-76.335-52.131c-14.895 9.309-31.651 14.895-48.407 20.48l-14.895 93.091-98.676 1.862-18.618-91.229c-16.756-5.585-33.513-11.171-50.269-20.48l-76.335 55.855-68.887-68.887 52.131-78.196c-9.309-14.895-14.895-31.651-20.48-48.407l-93.091-14.895v-98.676l93.091-18.618c5.585-16.756 11.171-33.513 20.48-48.407l-57.716-74.473 67.025-70.749 76.335 53.993c14.895-9.309 31.651-14.895 48.407-20.48l14.895-93.091 98.676-1.862 16.756 93.091c16.756 5.585 33.513 11.171 48.407 20.48l76.335-55.855 70.749 67.025-53.993 76.335c9.309 14.895 14.895 31.651 20.48 48.407l96.815 14.895zM703.767 408.902l-7.447-22.342c-5.585-14.895-9.309-27.927-16.756-40.96l-9.309-20.48 13.033-18.618 35.375-50.269-24.204-24.204-52.131 37.236-20.48 14.895-22.342-13.033c-13.033-7.447-26.065-11.171-40.96-16.756l-22.342-7.447-3.724-22.342-11.171-61.44h-35.375l-9.309 63.302-3.724 22.342-22.342 7.447c-14.895 5.585-27.927 9.309-40.96 16.756l-20.48 11.171-18.618-13.033-50.269-35.375-24.204 24.204 37.236 50.269 14.895 18.618-13.033 26.065c-5.585 11.171-11.171 26.065-16.756 40.96l-7.447 20.48-20.48 3.724-59.578 14.895v35.375l61.44 9.309 22.342 3.724 7.447 22.342c5.585 14.895 9.309 27.927 16.756 40.96l11.171 20.48-13.033 18.618-33.513 52.131 26.065 24.204 50.269-37.236 18.618-13.033 20.48 9.309c13.033 7.447 27.927 13.033 44.684 16.756l20.48 5.585 3.724 22.342 11.171 59.578h35.375l9.309-61.44 3.724-22.342 22.342-7.447c14.895-5.585 27.927-9.309 40.96-16.756l20.48-11.171 18.618 13.033 52.131 35.375 24.204-24.204-37.236-50.269-14.895-22.342 13.033-20.48c7.447-11.171 13.033-26.065 14.895-39.098l5.585-24.204 24.204-3.724 61.44-11.171v-35.375l-89.367-14.895zM513.862 565.295c-1.862 0-1.862 0-3.724 0-63.302 0-115.433-52.131-117.295-117.295-1.862-67.025 50.269-121.018 117.295-121.018s121.018 52.131 121.018 117.295c1.862 63.302-52.131 117.295-117.295 121.018zM593.92 444.276v0c0-22.342-9.309-40.96-24.204-55.855s-37.236-24.204-59.578-24.204-42.822 9.309-57.716 26.065c-14.895 14.895-22.342 35.375-22.342 57.716 1.862 44.684 37.236 81.92 80.058 81.92h1.862c22.342 0 42.822-9.309 57.716-26.065 16.756-18.618 24.204-37.236 24.204-59.578v0z" />
<glyph unicode="&#xe904;" glyph-name="ecomerce_fulfillment" d="M452.023 307.566c-36.571 0-67.291-30.72-67.291-67.291s30.72-67.291 67.291-67.291 67.291 30.72 67.291 67.291-30.72 67.291-67.291 67.291zM452.023 200.777c-20.48 0-38.034 17.554-38.034 38.034s17.554 38.034 38.034 38.034c20.48 0 38.034-17.554 38.034-38.034 0-19.017-17.554-38.034-38.034-38.034zM675.84 307.566c-36.571 0-67.291-30.72-67.291-67.291s30.72-67.291 67.291-67.291c38.034 0 67.291 30.72 67.291 67.291s-30.72 67.291-67.291 67.291zM675.84 200.777c-20.48 0-38.034 17.554-38.034 38.034s17.554 38.034 38.034 38.034c21.943 0 38.034-17.554 38.034-38.034 0-19.017-17.554-38.034-38.034-38.034zM851.383 636.709c-2.926 2.926-7.314 5.851-11.703 5.851h-532.48l-23.406 70.217c-1.463 5.851-7.314 10.24-13.166 10.24h-99.474v-29.257h87.771l117.029-354.011c1.463-5.851 7.314-10.24 13.166-10.24h358.4c8.777 0 14.629 5.851 16.091 14.629l4.389 14.629 84.846 264.777c1.463 5.851 1.463 8.777-1.463 13.166zM737.28 358.766h-336.457l-84.846 254.537h503.223l-81.92-254.537z" />
<glyph unicode="&#xe905;" glyph-name="freight_optimisation" d="M680.229 461.166v232.594h-182.857v-137.509h-152.137v-182.857h-150.674v-169.691h636.343v257.463h-150.674zM345.234 232.96h-122.88v111.177h122.88v-111.177zM497.371 232.96h-122.88v294.034h122.88v-294.034zM650.971 461.166v-229.669h-124.343v433.006h122.88v-203.337zM801.646 232.96h-122.88v198.949h122.88v-198.949zM267.703 439.223c-13.166 0-19.017 7.314-19.017 16.091l-20.48-4.389c1.463-11.703 10.24-27.794 30.72-30.72v-14.629h16.091v14.629c17.554 2.926 26.331 16.091 26.331 29.257s-7.314 24.869-27.794 29.257l-13.166 2.926c-5.851 1.463-8.777 4.389-8.777 8.777s4.389 8.777 11.703 8.777c11.703 0 14.629-7.314 14.629-11.703l20.48 5.851c-1.463 10.24-8.777 21.943-24.869 24.869v16.091h-14.629v-16.091c-14.629-2.926-27.794-13.166-27.794-30.72 0-14.629 10.24-23.406 26.331-27.794l13.166-2.926c5.851-1.463 8.777-4.389 8.777-8.777 2.926-2.926-4.389-8.777-11.703-8.777z" />
<glyph unicode="&#xe906;" glyph-name="gearIcon" d="M987.597 371.354l1.971 147.84-139.955 25.626c-5.914 25.626-15.77 51.251-29.568 74.906l84.762 114.33-102.502 104.474-116.301-78.848c-23.654 13.798-47.309 23.654-72.934 31.539l-21.709 139.981-147.84 1.971-27.597-137.984c-25.626-7.885-51.251-17.741-74.906-29.568l-114.355 84.762-106.445-102.528 78.848-118.272c-13.798-23.654-23.654-47.309-31.539-72.934l-139.955-21.683-1.971-147.84 139.955-27.597c7.885-25.626 17.741-51.251 29.568-72.934l-84.762-114.33 102.502-106.445 116.301 80.819c23.654-13.798 47.309-23.654 72.934-31.539l21.683-141.926 147.84-1.971 25.626 139.955c25.626 7.885 49.28 15.77 72.934 29.568l116.301-84.762 106.445 102.502-80.819 116.301c13.798 23.654 23.654 47.309 31.539 72.934l143.949 23.654zM805.222 391.757l-9.062-29.44c-7.245-23.501-15.795-43.366-26.957-62.515l-15.974-27.392 74.752-107.546-45.875-44.186-108.851 79.334-28.058-16.384c-19.328-11.264-39.757-17.997-62.515-24.986l-28.851-8.883-5.427-29.696-18.074-98.637-63.718 0.845-20.045 131.123-29.824 9.165c-23.501 7.219-43.366 15.795-62.515 26.957l-27.392 15.974-107.546-74.752-43.93 45.696 78.643 106.061-15.206 27.878c-9.139 16.742-18.022 38.784-25.702 63.744l-8.73 28.416-128.486 25.344 0.87 64.384 129.178 20.019 9.114 29.747c7.245 23.501 15.795 43.366 26.957 62.515l15.642 26.803-73.011 109.517 46.234 44.518 105.062-77.901 27.315 13.645c20.045 10.035 42.701 18.944 67.302 26.522l28.314 8.704 5.811 29.056 19.507 97.485 64.512-0.87 15.258-98.432 4.762-30.746 29.747-9.165c23.501-7.219 43.366-15.795 62.515-26.957l27.034-15.77 107.878 73.139 43.725-44.57-79.002-106.573 16.512-28.314c10.803-18.534 19.123-39.629 24.064-61.030l7.347-31.846 130.765-23.962-0.845-64.205-133.222-21.837zM519.936 643.994c-1.613 0.051-3.226 0.077-4.838 0.077-97.306 0-177.971-79.667-180.634-180.147-2.688-99.456 77.952-182.758 180.070-185.446 102.144 0 185.446 80.64 185.446 180.070 2.739 99.43-77.901 182.758-180.045 185.446zM649.498 459.213v-0.691c0-34.278-13.875-66.611-39.066-91.059-25.421-24.653-59.213-38.323-95.181-38.477-35.84 1.101-69.094 15.693-93.747 41.088-24.448 25.216-37.427 58.061-36.48 92.493 1.894 72.192 60.262 130.944 130.099 130.944l3.507-0.051c36.070-0.947 69.606-15.539 94.413-41.114 24.448-25.216 37.427-58.061 36.48-92.467l-0.026-0.666z" />
<glyph unicode="&#xe907;" glyph-name="lower_freight_costs" d="M644.189 358.633v176.873h-264.378v-176.873h-227.142v-247.622h718.662v247.622h-227.142zM379.811 148.247h-189.905v173.149h189.905v-173.149zM606.953 148.247h-189.905v350.022h189.905v-350.022zM834.095 148.247h-189.905v173.149h189.905v-173.149zM268.102 462.895c-18.618 0-27.927 11.171-27.927 24.204l-29.789-7.447c1.862-18.618 14.895-40.96 46.545-46.545v-24.204h26.065v26.065c26.065 3.724 39.098 24.204 39.098 42.822 0 20.48-11.171 37.236-40.96 42.822l-18.618 3.724c-9.309 1.862-13.033 7.447-13.033 13.033 0 7.447 5.585 14.895 18.618 14.895 16.756 0 20.48-11.171 22.342-18.618l29.789 7.447c-3.724 14.895-14.895 31.651-37.236 37.236v24.204h-27.927v-24.204c-22.342-3.724-40.96-20.48-40.96-44.684 0-20.48 14.895-35.375 39.098-40.96l18.618-3.724c9.309-1.862 13.033-5.585 13.033-13.033 1.862-7.447-5.585-13.033-16.756-13.033zM761.484 462.895c-18.618 0-27.927 11.171-27.927 24.204l-29.789-7.447c1.862-18.618 14.895-40.96 46.545-46.545v-24.204h26.065v26.065c26.065 3.724 39.098 24.204 39.098 42.822 0 20.48-11.171 37.236-40.96 42.822l-18.618 3.724c-11.171 3.724-14.895 9.309-14.895 14.895 0 7.447 5.585 14.895 18.618 14.895 16.756 0 20.48-11.171 22.342-18.618l29.789 7.447c-3.724 14.895-14.895 31.651-37.236 37.236v24.204h-26.065v-24.204c-22.342-3.724-40.96-20.48-40.96-44.684 0-20.48 14.895-35.375 39.098-40.96l18.618-3.724c9.309-1.862 13.033-5.585 13.033-13.033 1.862-9.309-3.724-14.895-16.756-14.895zM513.862 643.491c-18.618 0-27.927 11.171-27.927 24.204l-29.789-7.447c1.862-18.618 14.895-40.96 46.545-46.545v-24.204h26.065v24.204c26.065 3.724 39.098 24.204 39.098 42.822 0 20.48-11.171 37.236-40.96 42.822l-18.618 3.724c-9.309 1.862-13.033 7.447-13.033 13.033 0 7.447 5.585 14.895 18.618 14.895 16.756 0 20.48-11.171 22.342-18.618l29.789 7.447c-3.724 14.895-14.895 31.651-37.236 37.236v27.927h-26.065v-24.204c-22.342-3.724-40.96-20.48-40.96-44.684 0-20.48 14.895-35.375 39.098-40.96l18.618-3.724c9.309-1.862 13.033-5.585 13.033-13.033 0-9.309-7.447-14.895-18.618-14.895z" />
<glyph unicode="&#xe908;" glyph-name="pick-packbox" d="M816.114 554.944l-90.040 105.050 90.040 105.050c2.513 2.913 3.562 6.801 2.888 10.588-0.676 3.788-3.026 7.062-6.387 8.924l-291.525 161.951c-4.963 2.762-11.163 1.912-15.226-2.1l-88.547-87.779-87.741 87.741c-4.1 4.1-10.45 4.937-15.462 2.025l-307.725-178.15c-3.587-2.075-5.949-5.763-6.337-9.9-0.375-4.137 1.275-8.188 4.425-10.888l104.273-89.373-89.986-119.977c-2.225-2.949-3.050-6.724-2.275-10.35 0.763-3.612 3.062-6.712 6.3-8.512l89.652-49.807c-0.384-1.219-0.765-2.447-0.765-3.793v-118.413c0-15.636 8.412-30.225 21.975-38.088l260.475-150.374c7.013-4.037 14.863-6.062 22.725-6.062 0.077 0 0.151 0.014 0.228 0.014 0.070 0 0.128-0.040 0.197-0.040 0.136 0 0.248 0.073 0.383 0.078 7.592 0.134 15.158 2.111 21.93 6.010l259.675 149.925c14.037 8.125 22.762 23.25 22.762 39.45v131.909l91.050 55.642c3.2 1.962 5.387 5.225 5.962 8.924 0.588 3.7-0.475 7.488-2.925 10.326zM404.476 520.016l-252.892 140.499 252.892 154.546v-295.045zM430.076 815.581l253.742-155.066-253.742-140.973v296.038zM517.063 919.456l269.413-149.663-79.868-93.196-268.822 164.276 79.277 78.582zM318.427 919.319l78.726-78.728-269.72-164.826-92.594 79.365 283.588 164.188zM129.716 643.388l268.392-149.11-81.17-109.172-268.887 149.387 81.665 108.895zM146.464 331.306c-5.663 3.287-9.188 9.388-9.188 15.925v108.407l177.038-98.356c1.962-1.088 4.087-1.613 6.199-1.613 3.939 0 7.8 1.813 10.289 5.162l73.674 99.098v-277.578l-258.012 148.956zM696.426 348.143c0-7.1-3.825-13.724-9.975-17.288l-256.375-148.022v277.373l74.563-99.414c2.5-3.337 6.338-5.125 10.25-5.125 2.275 0 4.588 0.613 6.662 1.875l174.875 106.866v-116.266zM518.139 385.456l-81.396 108.513 269.569 149.766 80.59-94.030-268.763-164.25z" />
<glyph unicode="&#xe909;" glyph-name="retail_store_fulfillment" d="M700.709 570.88c-1.463 7.314-7.314 13.166-14.629 13.166h-59.977c-11.703 62.903-35.109 89.234-57.051 111.177-16.091 14.629-35.109 21.943-55.589 21.943-21.943 0-42.423-11.703-58.514-29.257-24.869-29.257-40.96-67.291-49.737-103.863h-65.829c-7.314 0-13.166-5.851-14.629-13.166l-54.126-374.491c-1.463-4.389 0-8.777 2.926-11.703s5.851-4.389 10.24-4.389h456.411c7.314 0 14.629 5.851 14.629 14.629 0 1.463 0 2.926 0 4.389l-54.126 371.566zM476.891 668.891c10.24 11.703 23.406 19.017 38.034 19.017 11.703 0 24.869-4.389 33.646-13.166 16.091-14.629 36.571-33.646 48.274-90.697h-162.377c8.777 30.72 21.943 61.44 42.423 84.846zM351.086 553.326h46.811c-8.777-43.886-8.777-80.457-8.777-84.846h29.257c0 1.463 0 39.497 8.777 84.846h174.080c2.926-23.406 4.389-51.2 4.389-84.846h29.257c0 33.646-1.463 61.44-4.389 84.846h42.423l30.72-217.966h-384.731l32.183 217.966zM299.886 208.091l14.629 98.011h393.509l14.629-98.011h-422.766z" />
<glyph unicode="&#xe90a;" glyph-name="returns" d="M855.771 311.954h-138.971c-13.166 21.943-36.571 38.034-64.366 38.034s-51.2-16.091-64.366-38.034h-124.343v334.994h-140.434l-124.343-150.674v-184.32h-30.72v-29.257h89.234c0-2.926-1.463-4.389-1.463-7.314 0-40.96 33.646-74.606 74.606-74.606s74.606 33.646 74.606 74.606c0 2.926 0 4.389-1.463 7.314h175.543c0-2.926-1.463-4.389-1.463-7.314-1.463-40.96 32.183-74.606 74.606-74.606 40.96 0 74.606 33.646 74.606 74.606 0 2.926 0 4.389-1.463 7.314h130.194v29.257zM330.606 230.034c-24.869 0-45.349 20.48-45.349 45.349 0 26.331 20.48 45.349 45.349 45.349s45.349-20.48 45.349-45.349c0-24.869-20.48-45.349-45.349-45.349zM433.006 311.954h-38.034c-13.166 21.943-36.571 38.034-64.366 38.034s-51.2-16.091-64.366-38.034h-38.034v172.617l109.714 133.12h95.086v-305.737zM652.434 230.034c-24.869 0-45.349 20.48-45.349 45.349 0 26.331 20.48 45.349 45.349 45.349s45.349-20.48 45.349-45.349c0-24.869-20.48-45.349-45.349-45.349zM833.829 695.223h-340.846v-326.217h340.846v326.217zM803.109 399.726h-280.869v266.24h280.869v-266.24zM409.6 483.109v102.4h-65.829l-81.92-102.4h147.749zM358.4 554.789h21.943v-42.423h-55.589l33.646 42.423zM655.36 488.96l-29.257 30.72 128.731-1.463 1.463 29.257h-130.194l27.794 29.257-19.017 19.017-64.366-62.903 64.366-64.366z" />
<glyph unicode="&#xe90b;" glyph-name="rf_scanning" d="M308.663 603.063h29.257v-118.491h-29.257v118.491zM389.12 483.109h13.166v119.954h-42.423v-119.954h13.166zM424.229 603.063h29.257v-118.491h-29.257v118.491zM475.429 603.063h29.257v-118.491h-29.257v118.491zM526.629 603.063h29.257v-118.491h-29.257v118.491zM605.623 483.109h14.629v119.954h-43.886v-119.954h14.629zM642.194 603.063h29.257v-118.491h-29.257v118.491zM689.006 603.063h29.257v-118.491h-29.257v118.491zM308.663 420.206h29.257v-118.491h-29.257v118.491zM373.029 412.891h-13.166v-119.954h42.423v119.954h-13.166zM424.229 412.891h29.257v-118.491h-29.257v118.491zM475.429 412.891h29.257v-118.491h-29.257v118.491zM526.629 412.891h29.257v-118.491h-29.257v118.491zM590.994 412.891h-14.629v-119.954h43.886v119.954h-14.629zM642.194 412.891h29.257v-118.491h-29.257v118.491zM689.006 412.891h29.257v-118.491h-29.257v118.491zM277.943 465.554h476.891v-29.257h-476.891v29.257zM234.057 661.577h58.514v29.257h-87.771v-90.697h29.257zM731.429 690.834v-29.257h58.514v-61.44h29.257v90.697zM234.057 297.326h-29.257v-92.16h87.771v29.257h-58.514zM789.943 234.423h-58.514v-29.257h87.771v92.16h-29.257z" />
<glyph unicode="&#xe90c;" glyph-name="scale_your_business_demand" d="M822.924 757.062h-512v-346.298h-109.847v-273.687h273.687v109.847h346.298v510.138h1.862zM439.389 174.313h-201.076v199.215h72.611v-128.465h128.465v-70.749zM439.389 284.16h-91.229v91.229h91.229v-91.229zM785.687 284.16h-309.062v128.465h-128.465v307.2h437.527v-435.665zM595.782 500.131l117.295 117.295v-52.131h37.236v115.433h-117.295v-37.236h53.993l-117.295-115.433z" />
<glyph unicode="&#xe90d;" glyph-name="secure_warehouses" d="M733.556 606.255h-115.433v68.887c0 50.269-40.96 93.091-93.091 93.091h-22.342c-50.269 0-93.091-40.96-93.091-93.091v-68.887h-115.433l-40.96-478.487h519.447l-39.098 478.487zM446.836 675.142c0 29.789 24.204 55.855 55.855 55.855h22.342c29.789 0 55.855-24.204 55.855-55.855v-68.887h-134.051v68.887zM294.167 165.004l33.513 404.015h370.502l35.375-404.015h-439.389zM513.862 464.756c-40.96 0-72.611-33.513-72.611-72.611 0-22.342 9.309-42.822 26.065-55.855v-31.651c0-26.065 20.48-46.545 46.545-46.545s46.545 20.48 46.545 46.545v31.651c16.756 13.033 26.065 33.513 26.065 55.855 0 39.098-31.651 72.611-72.611 72.611zM530.618 360.495l-9.309-5.585v-52.131c0-5.585-3.724-9.309-9.309-9.309s-9.309 3.724-9.309 9.309v52.131l-9.309 5.585c-11.171 7.447-16.756 18.618-16.756 29.789 0 20.48 16.756 35.375 35.375 35.375 20.48 0 35.375-16.756 35.375-35.375 1.862-11.171-5.585-22.342-16.756-29.789z" />
<glyph unicode="&#xe90e;" glyph-name="shoppingTrolley" d="M425.067 243.2c-53.333 0-98.133-44.8-98.133-98.133s44.8-98.133 98.133-98.133 98.133 44.8 98.133 98.133-44.8 98.133-98.133 98.133zM425.067 89.6c-29.867 0-55.467 25.6-55.467 55.467s25.6 55.467 55.467 55.467c29.867 0 55.467-25.6 55.467-55.467s-25.6-55.467-55.467-55.467zM751.467 243.2c-53.333 0-98.133-44.8-98.133-98.133s44.8-98.133 98.133-98.133c55.467 0 98.133 44.8 98.133 98.133s-44.8 98.133-98.133 98.133zM751.467 89.6c-29.867 0-55.467 25.6-55.467 55.467s25.6 55.467 55.467 55.467c32 0 55.467-25.6 55.467-55.467s-25.6-55.467-55.467-55.467zM1006.933 725.333c-4.267 4.267-10.667 8.533-17.067 8.533h-776.811l-33.856 102.4c-2.133 8.533-10.667 14.933-19.2 14.933h-145.067v-42.667h128l170.667-516.267c2.133-8.533 10.667-14.933 19.2-14.933h522.539c10.432 0 18.112 7.232 21.397 17.088l0.064-0.021 1.216 3.755c0 0 0 0.021 0 0.021l6.997 21.803 124.053 386.155c2.133 6.4 2.133 12.8-2.133 19.2zM840.384 320h-490.517l-122.709 371.2h732.843l-119.616-371.2z" />
<glyph unicode="&#xe90f;" glyph-name="value_added_services" d="M528.091 610.377h222.354v-93.623h-222.354v93.623zM495.909 518.217v92.16h-225.28v-92.16zM528.091 484.571h222.354v-315.977h-222.354v315.977zM270.629 484.571h225.28v-315.977h-225.28v315.977zM573.44 644.023l58.514 33.646-16.091 29.257-55.589-32.183 33.646 54.126-27.794 17.554-38.034-61.44v74.606h-32.183v-74.606l-38.034 61.44-27.794-17.554 33.646-54.126-55.589 32.183-16.091-29.257 58.514-33.646h-212.114v-507.611h547.109v507.611h-212.114zM751.909 518.217h-223.817v93.623h222.354v-93.623zM495.909 610.377v-92.16h-225.28v93.623h225.28zM270.629 484.571h225.28v-314.514h-225.28v314.514zM528.091 170.057v314.514h222.354v-314.514h-222.354z" />
<glyph unicode="&#xe910;" glyph-name="warehouse_management" d="M457.874 597.211h-65.829v-102.4h149.211l-83.383 102.4zM421.303 565.029h21.943l33.646-42.423h-55.589v42.423zM201.874 294.4h77.531c7.314-35.109 38.034-61.44 74.606-61.44s67.291 26.331 74.606 61.44h109.714c7.314-35.109 38.034-61.44 74.606-61.44 42.423 0 76.069 33.646 76.069 76.069s-33.646 76.069-76.069 76.069c-2.926 0-5.851 0-10.24-1.463v122.88l-124.343 150.674h-140.434v-197.486h-136.046v-165.303zM614.4 355.84c26.331 0 46.811-20.48 46.811-46.811s-20.48-46.811-46.811-46.811-46.811 20.48-46.811 46.811 20.48 46.811 46.811 46.811zM368.64 627.931h95.086l109.714-133.12v-119.954c-19.017-10.24-32.183-29.257-36.571-51.2h-109.714c-5.851 30.72-29.257 54.126-58.514 59.977v244.297zM354.011 355.84c26.331 0 46.811-20.48 46.811-46.811s-20.48-46.811-46.811-46.811c-26.331 0-46.811 20.48-46.811 46.811s19.017 46.811 46.811 46.811zM231.131 430.446h106.789v-48.274c-30.72-5.851-54.126-29.257-59.977-59.977h-48.274l1.463 108.251zM624.64 677.669v-276.48h136.046v29.257h-106.789v247.223zM485.669 89.6c-55.589 0-111.177 13.166-160.914 36.571l42.423 16.091-8.777 27.794-86.309-32.183 32.183-86.309 27.794 10.24-14.629 36.571c52.663-24.869 111.177-38.034 169.691-38.034 178.469 0 333.531 119.954 380.343 291.109l-27.794 7.314c-42.423-159.451-188.709-269.166-354.011-269.166zM277.943 752.274v-46.811h29.257v92.16h-92.16v-29.257h35.109c-98.011-73.143-157.989-190.171-157.989-314.514 0-105.326 40.96-204.8 115.566-277.943l20.48 20.48c-68.754 68.754-106.789 160.914-106.789 257.463 0 118.491 61.44 228.206 156.526 298.423zM485.669 816.64c191.634 0 351.086-149.211 362.789-339.383l-29.257 29.257-20.48-20.48 65.829-65.829 65.829 65.829-20.48 20.48-29.257-29.257c-14.629 204.8-185.783 368.64-394.971 368.64-35.109 0-70.217-4.389-102.4-13.166l7.314-27.794c30.72 8.777 62.903 11.703 95.086 11.703z" />
<glyph unicode="&#xe911;" glyph-name="warehousing" d="M855.771 625.006l-343.771 160.914-343.771-162.377v-105.326h46.811v-408.137h29.257v408.137h535.406v-408.137h29.257v408.137h46.811v106.789zM827.977 546.011h-630.491v58.514l314.514 149.211 315.977-147.749v-59.977zM495.909 401.189h-131.657v-128.731h131.657v128.731zM466.651 301.714h-73.143v71.68h73.143v-71.68zM658.286 401.189h-131.657v-128.731h131.657v128.731zM629.029 301.714h-73.143v71.68h73.143v-71.68zM283.794 118.857h131.657v128.731h-131.657v-128.731zM313.051 218.331h73.143v-71.68h-73.143v71.68zM446.171 118.857h131.657v128.731h-131.657v-128.731zM475.429 218.331h73.143v-71.68h-73.143v71.68zM607.086 118.857h131.657v128.731h-131.657v-128.731zM636.343 218.331h73.143v-71.68h-73.143v71.68zM295.497 607.451h68.754v-29.257h-68.754v29.257zM478.354 607.451h68.754v-29.257h-68.754v29.257zM661.211 607.451h68.754v-29.257h-68.754v29.257z" />
<glyph unicode="&#xe912;" glyph-name="automatic_cartonisation" d="M634.88 689.371h-235.52l-105.326-112.64h-2.926v-1.463l-7.314-7.314v-361.326h456.411v361.326l-105.326 121.417zM526.629 660.114h93.623l73.143-83.383h-166.766v83.383zM412.526 660.114h86.309v-83.383h-165.303l78.994 83.383zM712.411 235.886h-397.897v311.589h397.897v-311.589zM598.309 448l-21.943 20.48-102.4-103.863-33.646 32.183-20.48-20.48 54.126-52.663z" />
<glyph unicode="&#xe913;" glyph-name="boxesIcon" d="M983.987 929.613h-786.662v-532.762h-168.038v-421.965h421.965v168.064h532.762v786.662zM393.984 32.102h-307.456v307.482h110.797v-196.685h196.685v-110.797zM393.984 200.166h-139.418v139.443h139.443v-139.443zM926.746 200.166h-475.52v196.685h-196.659v475.494h672.205v-672.179zM636.109 536.294l179.226 179.251v-82.97h57.242v180.685h-180.659v-57.242h82.944l-179.226-179.251z" />
<glyph unicode="&#xe914;" glyph-name="competitive_pricing" d="M625.571 768.233c-128.465 0-227.142-48.407-230.865-111.709-130.327 0-227.142-48.407-230.865-113.571v-206.662c0-67.025 100.538-117.295 232.727-117.295h1.862c22.342-52.131 111.709-91.229 227.142-91.229 132.189 0 232.727 50.269 232.727 117.295v407.738c-1.862 65.164-100.538 115.433-232.727 115.433zM392.844 256.233c-113.571 1.862-193.629 42.822-193.629 81.92v37.236c39.098-31.651 109.847-52.131 193.629-52.131v-67.025zM392.844 356.771c-113.571 1.862-193.629 42.822-193.629 80.058v39.098c39.098-31.651 109.847-52.131 193.629-52.131v-67.025zM392.844 552.262v-94.953c-113.571 1.862-193.629 42.822-193.629 81.92 0 37.236 80.058 80.058 193.629 80.058v-67.025zM822.924 245.062c0-39.098-81.92-81.92-197.353-81.92s-197.353 42.822-197.353 81.92v37.236c40.96-31.651 111.709-52.131 197.353-52.131s156.393 20.48 197.353 52.131v-37.236zM822.924 349.324v-1.862c0-39.098-81.92-81.92-197.353-81.92s-195.491 42.822-195.491 81.92v37.236c40.96-31.651 111.709-52.131 197.353-52.131s156.393 20.48 197.353 52.131v-35.375zM822.924 451.724v-1.862c0-39.098-81.92-81.92-197.353-81.92s-197.353 42.822-197.353 81.92v37.236c40.96-31.651 111.709-52.131 197.353-52.131s156.393 20.48 197.353 52.131v-35.375zM822.924 552.262v-1.862c0-39.098-81.92-81.92-197.353-81.92s-195.491 42.822-195.491 81.92v37.236c40.96-31.651 111.709-52.131 197.353-52.131s154.531 20.48 195.491 52.131v-35.375zM625.571 569.018c-115.433 0-197.353 42.822-197.353 81.92s81.92 81.92 197.353 81.92 197.353-42.822 197.353-81.92-80.058-81.92-197.353-81.92z" />
<glyph unicode="&#xe915;" glyph-name="cross_docking" d="M406.674 404.114v111.177h-217.966v-112.64l217.966 1.463zM377.417 434.834h-159.451v51.2h157.989v-51.2zM497.371 319.269h-43.886v302.811h-29.257v-61.44h-250.149l1.463 61.44h-30.72v-301.349h-43.886v-140.434h-29.257v-30.72h83.383v-38.034c0-17.554 14.629-30.72 30.72-30.72h20.48c17.554 0 32.183 13.166 35.109 30.72v38.034h114.103v-38.034c0-17.554 14.629-30.72 30.72-30.72h21.943c17.554 0 30.72 13.166 32.183 30.72v38.034h83.383v30.72h-27.794c0 0 0 138.971 1.463 138.971zM213.577 113.006h-29.257v36.571h29.257v-36.571zM412.526 113.006h-29.257v36.571h29.257v-36.571zM465.189 178.834h-334.994v109.714h40.96v239.909h253.074v-238.446h40.96v-111.177zM550.034 617.691v-468.114h57.051v-38.034c0-17.554 14.629-30.72 32.183-30.72h21.943c17.554 0 32.183 14.629 32.183 30.72v38.034h115.566v-38.034c0-17.554 14.629-30.72 32.183-30.72h21.943c17.554 0 30.72 13.166 32.183 30.72v38.034h57.051v468.114c0 0-402.286 0-402.286 0zM665.6 113.006h-29.257v36.571h29.257v-36.571zM864.549 113.006h-29.257v36.571h29.257v-36.571zM923.063 177.371h-343.771v411.063h343.771v-411.063zM731.429 339.749h-117.029v-128.731h117.029v128.731zM702.171 238.811h-58.514v71.68h58.514v-71.68zM772.389 209.554h117.029v128.731h-117.029v-128.731zM801.646 310.491h58.514v-71.68h-58.514v71.68zM807.497 505.051h-117.029v-131.657h117.029v131.657zM782.629 402.651h-58.514v73.143h58.514v-73.143zM412.526 684.983l-29.257 30.72 128.731-1.463h128.731l-26.331-29.257 19.017-20.48 62.903 64.366-64.366 64.366-20.48-20.48 29.257-29.257h-257.463l27.794 29.257-19.017 20.48-64.366-64.366 64.366-64.366zM215.040 287.086c-24.869 0-45.349-20.48-45.349-45.349s20.48-45.349 45.349-45.349 45.349 20.48 45.349 45.349-21.943 45.349-45.349 45.349zM215.040 227.109c-8.777 0-16.091 7.314-16.091 16.091s7.314 14.629 16.091 14.629 16.091-7.314 16.091-16.091-8.777-14.629-16.091-14.629zM381.806 287.086c-24.869 0-45.349-20.48-45.349-45.349s20.48-45.349 45.349-45.349 45.349 20.48 45.349 45.349-20.48 45.349-45.349 45.349zM381.806 227.109c-8.777 0-16.091 7.314-16.091 16.091s7.314 16.091 16.091 16.091 16.091-7.314 16.091-16.091-5.851-16.091-16.091-16.091z" />
</font>
</defs>
</svg>
