<?xml version="1.0" encoding="utf-8"?>
<!-- Generator: Adobe Illustrator 20.1.0, SVG Export Plug-In . SVG Version: 6.00 Build 0)  -->
<svg version="1.1" id="Layer_1" xmlns="http://www.w3.org/2000/svg" xmlns:xlink="http://www.w3.org/1999/xlink" x="0px" y="0px"
	 viewBox="0 0 246.6 164.1" style="enable-background:new 0 0 246.6 164.1;" xml:space="preserve">
<style type="text/css">
	.st0{fill:#FFFFFF;}
	.st1{fill:#191915;}
</style>
<title>eStoreLogistics[m]</title>
<rect x="1.8" y="1.9" class="st0" width="243" height="160"/>
<path class="st1" d="M0,0v164.1h246.6V0H0z M242.5,80.1H78.4V4.3h164.2V80.1z M74.3,4.3v75.8H4.1V4.3H74.3z M4.1,160V84.2h238.4V160
	L4.1,160z"/>
<path class="st1" d="M28.8,134.9v-25.5h5.1v20.8h12.6v4.8L28.8,134.9z"/>
<path class="st1" d="M46.2,122.1c0-1.8,0.3-3.6,1-5.3c1.3-3.2,3.8-5.7,7-7c3.9-1.5,8.2-1.3,11.8,0.7c2,1.1,3.7,2.8,4.8,4.8
	c1.2,2.1,1.8,4.4,1.8,6.8c0,1.8-0.3,3.6-1.1,5.3c-0.7,1.6-1.6,3-2.8,4.2c-1.2,1.2-2.7,2.1-4.2,2.7c-3.8,1.6-8.2,1.3-11.8-0.7
	c-2-1.1-3.7-2.8-4.8-4.8C46.8,126.8,46.2,124.5,46.2,122.1z M51.5,122.1c-0.1,2.2,0.7,4.4,2.2,6c1.5,1.6,3.6,2.4,5.7,2.3
	c2.2,0.1,4.3-0.8,5.8-2.3c3-3.4,3-8.6,0-12c-1.5-1.5-3.6-2.4-5.8-2.3c-2.2-0.1-4.2,0.8-5.7,2.3C52.2,117.7,51.4,119.9,51.5,122.1z"
	/>
<path class="st1" d="M75.8,122.1c0-1.8,0.3-3.6,1-5.3c1.3-3.2,3.8-5.7,7-7c1.6-0.7,3.4-1,5.2-1c4.8,0,9.3,2.6,11.6,6.8l-5.2,1.3
	c-0.7-1-1.7-1.7-2.8-2.2c-1.1-0.6-2.4-0.8-3.6-0.9c-2.2-0.1-4.3,0.8-5.8,2.3c-1.5,1.6-2.3,3.8-2.2,6c-0.2,4.3,3.1,8.1,7.4,8.3
	c0.3,0,0.5,0,0.8,0c1,0,1.9-0.1,2.9-0.4c0.8-0.2,1.5-0.6,2.2-1.1c0.5-0.4,1-0.9,1.5-1.4c0.4-0.5,0.7-1,0.9-1.5V125h-7.1v-4.1H101v14
	h-4.3V134c0-0.3,0-0.5,0-0.6c0-0.2,0-0.3,0-0.5v-0.4c0-0.1,0-0.1,0-0.2c0-0.1,0-0.1,0-0.1l0,0l0,0c-0.9,1-2,1.7-3.3,2.2
	c-1.4,0.6-2.9,1-4.5,1c-2.3,0-4.6-0.6-6.7-1.7c-2-1.1-3.7-2.8-4.8-4.8C76.4,126.9,75.7,124.5,75.8,122.1z"/>
<path class="st1" d="M105.9,134.9v-25.5h5.1v25.5H105.9z"/>
<path class="st1" d="M114.8,127.8l4.9-1.3c0.3,1.2,1,2.3,2,3.1c1.1,0.9,2.4,1.3,3.8,1.3c1.1,0.1,2.2-0.2,3.1-0.9
	c0.7-0.5,1.1-1.3,1.1-2.2c0-0.3-0.1-0.7-0.2-1c-0.1-0.3-0.3-0.6-0.6-0.8c-0.3-0.2-0.6-0.4-0.9-0.6c-0.4-0.2-0.8-0.4-1.2-0.6
	c-0.5-0.2-0.9-0.4-1.3-0.5l-1.5-0.5c-0.6-0.2-1.1-0.4-1.5-0.5l-1.3-0.5c-0.4-0.1-0.8-0.3-1.3-0.6c-0.5-0.2-0.9-0.5-1.3-0.8
	c-0.4-0.3-0.8-0.6-1.1-0.9c-0.4-0.3-0.7-0.7-0.9-1.2c-0.5-1-0.8-2-0.8-3.1c0-2.1,1-4,2.7-5.2c3.8-2.8,9-2.9,12.8-0.2
	c1.7,1.2,2.9,3,3.5,5l-4.9,1.4c-0.2-1.1-0.9-2.2-1.9-2.8c-0.9-0.7-2.1-1-3.2-1c-1,0-2,0.2-2.8,0.8c-0.7,0.4-1,1.1-1.1,1.9
	c0,0.2,0,0.4,0.1,0.6c0.1,0.2,0.2,0.4,0.3,0.6c0.1,0.2,0.3,0.3,0.4,0.5c0.2,0.2,0.4,0.3,0.6,0.4l0.7,0.4c0.3,0.1,0.6,0.3,0.9,0.4
	l0.9,0.3l1,0.4l1,0.4c0.9,0.3,1.6,0.6,2.3,0.9c0.7,0.3,1.4,0.7,2.1,1.1c0.7,0.4,1.3,0.9,1.9,1.5c0.5,0.6,0.9,1.2,1.2,1.9
	c0.3,0.8,0.5,1.6,0.5,2.4c0,2.2-1,4.3-2.7,5.6c-2,1.5-4.5,2.3-7.1,2.2C120.4,135.7,116.1,132.5,114.8,127.8L114.8,127.8z"/>
<path class="st1" d="M137,114.1v-4.8h21v4.8h-8v20.8h-5.1v-20.8H137z"/>
<path class="st1" d="M161.2,134.9v-25.5h5.1v25.5H161.2z"/>
<path class="st1" d="M170.1,122.1c0-1.8,0.3-3.6,1-5.3c1.3-3.2,3.8-5.7,7-7c1.6-0.7,3.4-1,5.2-1c4.8,0,9.3,2.5,11.6,6.8l-5.1,1.4
	c-0.7-1-1.7-1.7-2.8-2.2c-1.1-0.6-2.4-0.8-3.6-0.9c-2.2-0.1-4.3,0.8-5.8,2.3c-1.5,1.6-2.3,3.8-2.2,6c-0.1,2.2,0.7,4.4,2.2,6
	c1.5,1.5,3.6,2.3,5.7,2.2c1.4,0,2.8-0.3,4-1c1.2-0.6,2.2-1.6,2.9-2.7l5.1,1.3c-1,2.2-2.7,4.1-4.8,5.5c-2.2,1.3-4.7,2-7.2,2
	c-2.3,0-4.6-0.6-6.7-1.7c-2-1.1-3.7-2.8-4.8-4.8C170.7,126.9,170.1,124.5,170.1,122.1z"/>
<path class="st1" d="M197.9,127.8l4.9-1.3c0.3,1.2,1,2.3,2,3.1c1.1,0.9,2.4,1.3,3.8,1.3c1.1,0.1,2.2-0.2,3.1-0.9
	c0.7-0.5,1.1-1.3,1.1-2.2c0-0.3-0.1-0.7-0.2-1c-0.1-0.3-0.3-0.6-0.6-0.8c-0.3-0.2-0.6-0.4-0.9-0.6c-0.4-0.2-0.8-0.4-1.2-0.6
	c-0.5-0.2-0.9-0.4-1.3-0.5l-1.5-0.5c-0.6-0.2-1.1-0.4-1.5-0.5l-1.3-0.5c-0.4-0.1-0.8-0.3-1.3-0.6c-0.5-0.2-0.9-0.5-1.3-0.8
	c-0.4-0.3-0.8-0.6-1.1-0.9c-0.4-0.3-0.7-0.7-0.9-1.2c-0.5-1-0.8-2.1-0.8-3.2c0-2.1,1-4,2.7-5.2c3.8-2.8,9-2.9,12.9-0.2
	c1.7,1.2,2.9,3,3.5,5l-4.9,1.4c-0.2-1.1-0.9-2.2-1.9-2.8c-0.9-0.7-2.1-1-3.2-1c-1,0-2,0.2-2.8,0.8c-0.7,0.4-1,1.1-1,1.9
	c0,0.2,0,0.4,0.1,0.6c0.1,0.2,0.2,0.4,0.3,0.6c0.1,0.2,0.3,0.3,0.4,0.5c0.2,0.2,0.4,0.3,0.6,0.4l0.7,0.4c0.3,0.1,0.6,0.3,0.9,0.4
	l0.9,0.3l1,0.4l1,0.4c0.9,0.3,1.6,0.6,2.3,0.9c0.7,0.3,1.4,0.7,2.1,1.1c0.7,0.4,1.3,0.9,1.9,1.5c0.5,0.6,0.9,1.2,1.2,1.9
	c0.3,0.8,0.5,1.6,0.5,2.4c0,2.2-1,4.3-2.7,5.6c-2,1.5-4.5,2.3-7.1,2.2C203.5,135.6,199.1,132.4,197.9,127.8L197.9,127.8z"/>
<path class="st1" d="M99.9,47.8l4.9-1.3c0.3,1.2,1,2.3,2,3.2c1.1,0.9,2.4,1.3,3.8,1.3c1.1,0.1,2.2-0.2,3.1-0.9
	c0.7-0.5,1.1-1.3,1.1-2.2c0-0.3-0.1-0.7-0.2-1c-0.1-0.3-0.3-0.6-0.6-0.8c-0.3-0.2-0.6-0.4-0.9-0.6c-0.4-0.2-0.8-0.4-1.2-0.6
	c-0.5-0.2-0.9-0.4-1.3-0.5l-1.5-0.5c-0.6-0.2-1.1-0.4-1.5-0.5l-1.3-0.5c-0.4-0.1-0.8-0.3-1.3-0.6c-0.5-0.2-0.9-0.5-1.3-0.8
	c-0.4-0.3-0.8-0.6-1.1-0.9c-0.4-0.3-0.7-0.7-0.9-1.2c-0.5-1-0.8-2-0.9-3.1c0-2.1,1-4,2.7-5.2c3.8-2.8,9-2.9,12.9-0.2
	c1.7,1.2,2.9,3,3.5,5l-4.9,1.3c-0.2-1.1-0.9-2.2-1.9-2.8c-0.9-0.7-2.1-1-3.2-1c-1,0-2,0.2-2.8,0.8c-0.7,0.4-1,1.1-1.1,1.9
	c0,0.2,0,0.4,0.1,0.6c0.1,0.2,0.2,0.4,0.3,0.6c0.1,0.2,0.3,0.3,0.4,0.5c0.2,0.2,0.4,0.3,0.6,0.4l0.7,0.4c0.3,0.1,0.6,0.3,0.9,0.4
	l0.9,0.3l1,0.3l1,0.3c0.9,0.3,1.6,0.6,2.3,0.9c0.7,0.3,1.4,0.7,2.1,1.1c0.7,0.4,1.3,0.9,1.9,1.5c0.5,0.6,0.9,1.2,1.2,1.9
	c0.3,0.8,0.5,1.6,0.5,2.4c0,2.2-1,4.3-2.7,5.6c-2,1.5-4.5,2.3-7.1,2.2C105.4,55.7,101.1,52.5,99.9,47.8L99.9,47.8z"/>
<path class="st1" d="M122.1,34.1v-4.8h21v4.8h-8v20.8H130V34.1H122.1z"/>
<path class="st1" d="M144.4,42.1c0-1.8,0.3-3.6,1-5.3c1.3-3.2,3.8-5.7,7-7c3.9-1.5,8.2-1.3,11.8,0.7c2,1.1,3.7,2.8,4.8,4.8
	c1.2,2.1,1.8,4.4,1.8,6.8c0,1.8-0.3,3.6-1.1,5.3c-0.7,1.6-1.6,3-2.8,4.2c-1.2,1.2-2.7,2.1-4.2,2.7c-3.8,1.6-8.2,1.3-11.8-0.7
	c-2-1.1-3.7-2.8-4.8-4.8C145,46.8,144.4,44.5,144.4,42.1z M149.7,42.1c-0.1,2.2,0.7,4.4,2.2,6c1.5,1.6,3.6,2.4,5.7,2.3
	c2.2,0.1,4.3-0.8,5.8-2.3c3-3.4,3-8.6,0-12c-1.5-1.5-3.6-2.4-5.8-2.3c-2.1-0.1-4.2,0.8-5.7,2.3C150.5,37.8,149.7,39.9,149.7,42.1
	L149.7,42.1z"/>
<path class="st1" d="M175.4,54.9V29.3h8.9c2.7-0.2,5.3,0.7,7.3,2.3c1.8,1.6,2.8,3.8,2.7,6.2c0,1.6-0.4,3.1-1.2,4.5
	c-0.9,1.3-2.1,2.3-3.6,2.8l5.8,9.7h-5.6l-5.1-8.7h-4.1v8.7L175.4,54.9z M180.5,41.7h4.5c1.1,0.1,2.2-0.3,3-1.1
	c1.4-1.5,1.4-3.9,0-5.4c-0.8-0.8-1.9-1.1-3-1.1h-4.5L180.5,41.7z"/>
<path class="st1" d="M199.5,54.9V29.3h18.1v4.8h-13v5.4h10.2V44h-10.2v6.1h13.2v4.8L199.5,54.9z"/>
<path class="st1" d="M39.8,55.3c-7.1,0-10.9-5.7-10.9-11.4c0-7,5.3-11.2,10.3-11.2c6.4,0,10.4,4.2,10.4,11.1c0,0.5,0,1-0.1,1.5v0.1
	H33.9l0,0c0.1,3.2,2.7,5.7,5.9,5.6c2.4,0.2,4.6-1.3,5.3-3.6v-0.1l4.2,1.3v0.1C47.9,52.8,44.1,55.4,39.8,55.3z M44.6,41.7L44.6,41.7
	c-0.1-2.2-1.5-4.8-5.3-4.8c-2.7,0-5,2-5.3,4.8v0.1L44.6,41.7z"/>
</svg>
