<?xml version="1.0" encoding="utf-8"?>
<!-- Generator: Adobe Illustrator 20.1.0, SVG Export Plug-In . SVG Version: 6.00 Build 0)  -->
<svg version="1.1" id="Layer_1" xmlns="http://www.w3.org/2000/svg" xmlns:xlink="http://www.w3.org/1999/xlink" x="0px" y="0px"
	 viewBox="0 0 3632.9 1571.3" style="enable-background:new 0 0 3632.9 1571.3;" xml:space="preserve">
<style type="text/css">
	.st0{fill:none;}
	.st1{opacity:0.5;fill:none;stroke:#FFFFFF;stroke-width:6;stroke-miterlimit:10;stroke-dasharray:12;}
	.st2{opacity:0.5;fill:none;stroke:#FFFFFF;stroke-width:6;stroke-miterlimit:10;}
	.st3{opacity:0.5;}
	.st4{fill:none;stroke:#FFFFFF;stroke-width:6;stroke-miterlimit:10;}
	.st5{fill:url(#New_Pattern_2);}
</style>
<pattern  x="-2759.8" y="2646.2" width="3632.9" height="1568.3" patternUnits="userSpaceOnUse" id="New_Pattern_2" viewBox="4.5 -2053.2 3632.9 1568.3" style="overflow:visible;">
	<g>
		<rect x="4.5" y="-2053.2" class="st0" width="3632.9" height="1568.3"/>
		<g>
			<line class="st1" x1="764.1" y1="0" x2="764.3" y2="-485.8"/>
		</g>
		<g>
			<path class="st1" d="M4301.3-1474.8h-484.4c-11,0-20,9-20,20v165c0,11-9,20-20,20h-144"/>
		</g>
		<g>
			<path class="st2" d="M3370.2-1833.1c-0.3,0-0.7,0-1.2,0c0.8-4.4,1.2-8.8,1.2-13.2c0-18.1-6.5-33.6-19.4-46.5
				c-12.9-12.9-28.4-19.4-46.5-19.4c-18.1,0-33.6,6.5-46.5,19.4c-12.9,12.9-19.4,28.4-19.4,46.5c0,0.3,0,0.6,0,0.8
				c-11.3,1.4-20.7,6.4-28.2,15c-7.6,8.6-11.3,18.7-11.3,30.3c0,11.5,3.8,21.6,11.3,30.1c7.5,8.5,16.9,13.6,28.2,15.2v0.8h131.8
				c11,0,20.3-3.8,28-11.5c7.7-7.7,11.5-17,11.5-28c0-11-3.8-20.3-11.5-28C3390.5-1829.2,3381.2-1833.1,3370.2-1833.1z"/>
			<path class="st2" d="M298.9-729c-0.3,0-0.7,0-1.2,0c0.8-4.4,1.2-8.8,1.2-13.2c0-18.1-6.5-33.6-19.4-46.5
				c-12.9-12.9-28.4-19.4-46.5-19.4s-33.6,6.5-46.5,19.4c-12.9,12.9-19.4,28.4-19.4,46.5c0,0.3,0,0.6,0,0.8
				c-11.3,1.4-20.7,6.4-28.2,15c-7.6,8.6-11.3,18.7-11.3,30.3s3.8,21.6,11.3,30.1c7.5,8.5,16.9,13.6,28.2,15.2v0.8h131.8
				c11,0,20.3-3.8,28-11.5c7.7-7.7,11.5-17,11.5-28c0-11-3.8-20.3-11.5-28C319.2-725.2,309.9-729,298.9-729z"/>
			<path class="st2" d="M2490.9-1088.9c-0.2,0-0.5,0-0.9,0c0.6-3.3,0.9-6.7,0.9-10c0-13.8-4.9-25.5-14.7-35.3
				c-9.8-9.8-21.6-14.7-35.3-14.7s-25.5,4.9-35.3,14.7c-9.8,9.8-14.7,21.6-14.7,35.3c0,0.2,0,0.4,0,0.6c-8.5,1-15.7,4.8-21.4,11.4
				c-5.7,6.6-8.6,14.2-8.6,23s2.9,16.4,8.6,22.8c5.7,6.5,12.9,10.3,21.4,11.6v0.6h100c8.3,0,15.4-2.9,21.2-8.8
				c5.8-5.8,8.8-12.9,8.8-21.2c0-8.3-2.9-15.4-8.8-21.2C2506.3-1086,2499.2-1088.9,2490.9-1088.9z"/>
			<path class="st2" d="M2276.6-1665.6c-0.2,0-0.5,0-0.9,0c0.6-3.3,0.9-6.7,0.9-10c0-13.8-4.9-25.5-14.7-35.3
				c-9.8-9.8-21.6-14.7-35.3-14.7s-25.5,4.9-35.3,14.7c-9.8,9.8-14.7,21.6-14.7,35.3c0,0.2,0,0.4,0,0.6c-8.5,1-15.7,4.8-21.4,11.4
				c-5.7,6.6-8.6,14.2-8.6,23s2.9,16.4,8.6,22.8c5.7,6.5,12.9,10.3,21.4,11.6v0.6h100c8.3,0,15.4-2.9,21.2-8.8
				c5.8-5.8,8.8-12.9,8.8-21.2c0-8.3-2.9-15.4-8.8-21.2C2292-1662.7,2284.9-1665.6,2276.6-1665.6z"/>
			<path class="st2" d="M1407.1-566.9c-0.3,0-0.7,0-1.2,0c0.8-4.4,1.2-8.8,1.2-13.2c0-18.1-6.5-33.6-19.4-46.5
				c-12.9-12.9-28.4-19.4-46.5-19.4c-18.1,0-33.6,6.5-46.5,19.4c-12.9,12.9-19.4,28.4-19.4,46.5c0,0.3,0,0.6,0,0.8
				c-11.3,1.4-20.7,6.4-28.2,15c-7.6,8.6-11.3,18.7-11.3,30.3s3.8,21.6,11.3,30.1c7.5,8.5,16.9,13.6,28.2,15.2v0.8h131.8
				c11,0,20.3-3.8,28-11.5c7.7-7.7,11.5-17,11.5-28c0-11-3.8-20.3-11.5-28C1427.4-563.1,1418-566.9,1407.1-566.9z"/>
			<g class="st3">
				<path class="st4" d="M758.9-1387.4c-49.9,0-90.5-40.6-90.5-90.5c0-49.9,40.6-90.5,90.5-90.5c49.9,0,90.5,40.6,90.5,90.5
					C849.4-1428,808.8-1387.4,758.9-1387.4z"/>
				<path class="st4" d="M758.9-1433c-24.7,0-44.8-20.1-44.8-44.8c0-24.7,20.1-44.8,44.8-44.8c24.7,0,44.8,20.1,44.8,44.8
					C803.7-1453.1,783.6-1433,758.9-1433z"/>
				<circle class="st4" cx="758.9" cy="-1477.9" r="15"/>
			</g>
			<g class="st3">
				<path class="st4" d="M2198.8-1292.6c-49.9,0-90.5-40.6-90.5-90.5c0-49.9,40.6-90.5,90.5-90.5c49.9,0,90.5,40.6,90.5,90.5
					C2289.3-1333.1,2248.7-1292.6,2198.8-1292.6z"/>
				<path class="st4" d="M2198.8-1338.2c-24.7,0-44.8-20.1-44.8-44.8c0-24.7,20.1-44.8,44.8-44.8c24.7,0,44.8,20.1,44.8,44.8
					C2243.7-1358.3,2223.6-1338.2,2198.8-1338.2z"/>
				<circle class="st4" cx="2198.8" cy="-1383" r="15"/>
			</g>
			<g class="st3">
				<path class="st4" d="M2732.4-764.7c-49.9,0-90.5-40.6-90.5-90.5s40.6-90.5,90.5-90.5c49.9,0,90.5,40.6,90.5,90.5
					S2782.3-764.7,2732.4-764.7z"/>
				<path class="st4" d="M2732.4-810.3c-24.7,0-44.8-20.1-44.8-44.8s20.1-44.8,44.8-44.8c24.7,0,44.8,20.1,44.8,44.8
					S2757.1-810.3,2732.4-810.3z"/>
				<circle class="st4" cx="2732.4" cy="-855.2" r="15"/>
			</g>
			<g class="st3">
				<path class="st4" d="M2068.6-1869.2c-49.9,0-90.5-40.6-90.5-90.5c0-49.9,40.6-90.5,90.5-90.5c49.9,0,90.5,40.6,90.5,90.5
					C2159.1-1909.8,2118.5-1869.2,2068.6-1869.2z"/>
				<path class="st4" d="M2068.6-1914.9c-24.7,0-44.8-20.1-44.8-44.8c0-24.7,20.1-44.8,44.8-44.8c24.7,0,44.8,20.1,44.8,44.8
					C2113.5-1935,2093.3-1914.9,2068.6-1914.9z"/>
				<circle class="st4" cx="2068.6" cy="-1959.7" r="15"/>
			</g>
			<g class="st3">
				<path class="st4" d="M3526.8-1267.8c-49.9,0-90.5-40.6-90.5-90.5c0-49.9,40.6-90.5,90.5-90.5c49.9,0,90.5,40.6,90.5,90.5
					C3617.3-1308.4,3576.7-1267.8,3526.8-1267.8z"/>
				<path class="st4" d="M3526.8-1313.4c-24.7,0-44.8-20.1-44.8-44.8c0-24.7,20.1-44.8,44.8-44.8c24.7,0,44.8,20.1,44.8,44.8
					C3571.7-1333.5,3551.5-1313.4,3526.8-1313.4z"/>
				<circle class="st4" cx="3526.8" cy="-1358.3" r="15"/>
			</g>
			<g class="st3">
				<path class="st4" d="M1605.1-843.4c-49.9,0-90.5-40.6-90.5-90.5s40.6-90.5,90.5-90.5c49.9,0,90.5,40.6,90.5,90.5
					S1655-843.4,1605.1-843.4z"/>
				<path class="st4" d="M1605.1-889c-24.7,0-44.8-20.1-44.8-44.8s20.1-44.8,44.8-44.8c24.7,0,44.8,20.1,44.8,44.8
					S1629.9-889,1605.1-889z"/>
				<circle class="st4" cx="1605.1" cy="-933.9" r="15"/>
			</g>
			<g id="UvQccg_24_" class="st3">
				<g>
					<path class="st4" d="M1617.4-1539.3c-0.2,3.6,1.1,5.6,3.8,7.6c4.6,3.4,9,7.2,13.6,10.8c1.1,0.8,1.6,1.7,1.5,3.1
						c-0.1,2.5,0,5.1,0,7.6c0,2.2-0.3,2.5-2.4,1.6c-8.8-3.5-17.6-7-26.4-10.6c-1.5-0.6-2.7-0.6-4.1,0c-8.7,3.5-17.5,7-26.2,10.5
						c-2.5,1-2.8,0.7-2.8-2c0-2.2,0.1-4.4,0-6.6c-0.1-1.7,0.5-2.8,1.8-3.9c5.3-4.2,10.5-8.5,15.8-12.7c1.1-0.9,1.5-1.9,1.5-3.3
						c-0.1-9.1-0.1-18.3-0.1-27.9c-2.1,0.7-3.5,1.1-4.9,1.6c-14.5,5-28.9,10.1-43.4,15.1c-2.1,0.7-2.5,0.5-2.5-1.6
						c0-4.4-0.1-8.8,0-13.2c0-1,0.7-2.3,1.5-2.9c15.2-11.9,30.4-23.7,45.6-35.4c1.6-1.2,2.2-2.4,2.2-4.4c-0.3-11.3-0.5-22.7-0.6-34
						c-0.1-8,5.7-14.2,13.6-14.4c7.4-0.3,14.2,5.8,14.3,13.6c0.2,9.4-0.1,18.8-0.3,28.3c0,2.5-0.2,5.1,0,7.6
						c0.1,0.9,0.6,2.1,1.3,2.7c15.1,11.8,30.3,23.6,45.5,35.3c1.6,1.3,2.3,2.6,2.2,4.7c-0.1,4,0,8,0,12c0,2.4-0.3,2.6-2.5,1.8
						c-15.1-5.2-30.3-10.4-45.4-15.6c-0.6-0.2-1.2-0.4-2.4-0.7C1617.5-1556.1,1617.8-1547.7,1617.4-1539.3z"/>
					<path class="st4" d="M1617.5-1564.8c0,8.7,0.3,17.1-0.1,25.5c-0.2,3.6,1.1,5.6,3.8,7.6c4.6,3.4,9,7.2,13.6,10.8
						c1.1,0.8,1.6,1.7,1.5,3.1c-0.1,2.5,0,5.1,0,7.6c0,2.2-0.3,2.5-2.4,1.6c-8.8-3.5-17.6-7-26.4-10.6c-1.5-0.6-2.7-0.6-4.1,0
						c-8.7,3.5-17.5,7-26.2,10.5c-2.5,1-2.8,0.7-2.8-2c0-2.2,0.1-4.4,0-6.6c-0.1-1.7,0.5-2.8,1.8-3.9c5.3-4.2,10.5-8.5,15.8-12.7
						c1.1-0.9,1.5-1.9,1.5-3.3c-0.1-9.1-0.1-18.3-0.1-27.9c-2.1,0.7-3.5,1.1-4.9,1.6c-14.5,5-28.9,10.1-43.4,15.1
						c-2.1,0.7-2.5,0.5-2.5-1.6c0-4.4-0.1-8.8,0-13.2c0-1,0.7-2.3,1.5-2.9c15.2-11.9,30.4-23.7,45.6-35.4c1.6-1.2,2.2-2.4,2.2-4.4
						c-0.3-11.3-0.5-22.7-0.6-34c-0.1-8,5.7-14.2,13.6-14.4c7.4-0.3,14.2,5.8,14.3,13.6c0.2,9.4-0.1,18.8-0.3,28.3
						c0,2.5-0.2,5.1,0,7.6c0.1,0.9,0.6,2.1,1.3,2.7c15.1,11.8,30.3,23.6,45.5,35.3c1.6,1.3,2.3,2.6,2.2,4.7c-0.1,4,0,8,0,12
						c0,2.4-0.3,2.6-2.5,1.8c-15.1-5.2-30.3-10.4-45.4-15.6C1619.3-1564.3,1618.7-1564.4,1617.5-1564.8z"/>
				</g>
			</g>
			<g id="UvQccg_20_" class="st3">
				<g>
					<path class="st4" d="M412-1215.5c-0.2,3.6,1.1,5.6,3.8,7.6c4.6,3.4,9,7.2,13.6,10.8c1.1,0.8,1.6,1.7,1.5,3.1
						c-0.1,2.5,0,5.1,0,7.6c0,2.2-0.3,2.5-2.4,1.6c-8.8-3.5-17.6-7-26.4-10.6c-1.5-0.6-2.7-0.6-4.1,0c-8.7,3.5-17.5,7-26.2,10.5
						c-2.5,1-2.8,0.7-2.8-2c0-2.2,0.1-4.4,0-6.6c-0.1-1.7,0.5-2.8,1.8-3.9c5.3-4.2,10.5-8.5,15.8-12.7c1.1-0.9,1.5-1.9,1.5-3.3
						c-0.1-9.1-0.1-18.3-0.1-27.9c-2.1,0.7-3.5,1.1-4.9,1.6c-14.5,5-28.9,10.1-43.4,15.1c-2.1,0.7-2.5,0.5-2.5-1.6
						c0-4.4-0.1-8.8,0-13.2c0-1,0.7-2.3,1.5-2.9c15.2-11.9,30.4-23.7,45.6-35.4c1.6-1.2,2.2-2.4,2.2-4.4c-0.3-11.3-0.5-22.7-0.6-34
						c-0.1-8,5.7-14.2,13.6-14.4c7.4-0.3,14.2,5.8,14.3,13.6c0.2,9.4-0.1,18.8-0.3,28.3c0,2.5-0.2,5.1,0,7.6
						c0.1,0.9,0.6,2.1,1.3,2.7c15.1,11.8,30.3,23.6,45.5,35.3c1.6,1.3,2.3,2.6,2.2,4.7c-0.1,4,0,8,0,12c0,2.4-0.3,2.6-2.5,1.8
						c-15.1-5.2-30.3-10.4-45.4-15.6c-0.6-0.2-1.2-0.4-2.4-0.7C412.1-1232.2,412.4-1223.8,412-1215.5z"/>
					<path class="st4" d="M412.1-1240.9c0,8.7,0.3,17.1-0.1,25.5c-0.2,3.6,1.1,5.6,3.8,7.6c4.6,3.4,9,7.2,13.6,10.8
						c1.1,0.8,1.6,1.7,1.5,3.1c-0.1,2.5,0,5.1,0,7.6c0,2.2-0.3,2.5-2.4,1.6c-8.8-3.5-17.6-7-26.4-10.6c-1.5-0.6-2.7-0.6-4.1,0
						c-8.7,3.5-17.5,7-26.2,10.5c-2.5,1-2.8,0.7-2.8-2c0-2.2,0.1-4.4,0-6.6c-0.1-1.7,0.5-2.8,1.8-3.9c5.3-4.2,10.5-8.5,15.8-12.7
						c1.1-0.9,1.5-1.9,1.5-3.3c-0.1-9.1-0.1-18.3-0.1-27.9c-2.1,0.7-3.5,1.1-4.9,1.6c-14.5,5-28.9,10.1-43.4,15.1
						c-2.1,0.7-2.5,0.5-2.5-1.6c0-4.4-0.1-8.8,0-13.2c0-1,0.7-2.3,1.5-2.9c15.2-11.9,30.4-23.7,45.6-35.4c1.6-1.2,2.2-2.4,2.2-4.4
						c-0.3-11.3-0.5-22.7-0.6-34c-0.1-8,5.7-14.2,13.6-14.4c7.4-0.3,14.2,5.8,14.3,13.6c0.2,9.4-0.1,18.8-0.3,28.3
						c0,2.5-0.2,5.1,0,7.6c0.1,0.9,0.6,2.1,1.3,2.7c15.1,11.8,30.3,23.6,45.5,35.3c1.6,1.3,2.3,2.6,2.2,4.7c-0.1,4,0,8,0,12
						c0,2.4-0.3,2.6-2.5,1.8c-15.1-5.2-30.3-10.4-45.4-15.6C413.9-1240.4,413.3-1240.5,412.1-1240.9z"/>
				</g>
			</g>
			<g id="UvQccg_17_" class="st3">
				<g>
					<path class="st4" d="M1133.8-1160.6c-3.6-0.2-5.6,1.1-7.6,3.8c-3.4,4.6-7.2,9-10.8,13.6c-0.8,1.1-1.7,1.6-3.1,1.5
						c-2.5-0.1-5.1,0-7.6,0c-2.2,0-2.5-0.3-1.6-2.4c3.5-8.8,7-17.6,10.6-26.4c0.6-1.5,0.6-2.7,0-4.1c-3.5-8.7-7-17.5-10.5-26.2
						c-1-2.5-0.7-2.8,2-2.8c2.2,0,4.4,0.1,6.6,0c1.7-0.1,2.8,0.5,3.9,1.8c4.2,5.3,8.5,10.5,12.7,15.8c0.9,1.1,1.9,1.5,3.3,1.5
						c9.1-0.1,18.3-0.1,27.9-0.1c-0.7-2.1-1.1-3.5-1.6-4.9c-5-14.5-10.1-28.9-15.1-43.4c-0.7-2.1-0.5-2.5,1.6-2.5
						c4.4,0,8.8-0.1,13.2,0c1,0,2.3,0.7,2.9,1.5c11.9,15.2,23.7,30.4,35.4,45.6c1.2,1.6,2.4,2.2,4.4,2.2c11.3-0.3,22.7-0.5,34-0.6
						c8-0.1,14.2,5.7,14.4,13.6c0.3,7.4-5.8,14.2-13.6,14.3c-9.4,0.2-18.8-0.1-28.3-0.3c-2.5,0-5.1-0.2-7.6,0
						c-0.9,0.1-2.1,0.6-2.7,1.3c-11.8,15.1-23.6,30.3-35.3,45.5c-1.3,1.6-2.6,2.3-4.7,2.2c-4-0.1-8,0-12,0c-2.4,0-2.6-0.3-1.8-2.5
						c5.2-15.1,10.4-30.3,15.6-45.4c0.2-0.6,0.4-1.2,0.7-2.4C1150.6-1160.5,1142.2-1160.2,1133.8-1160.6z"/>
					<path class="st4" d="M1159.3-1160.5c-8.7,0-17.1,0.3-25.5-0.1c-3.6-0.2-5.6,1.1-7.6,3.8c-3.4,4.6-7.2,9-10.8,13.6
						c-0.8,1.1-1.7,1.6-3.1,1.5c-2.5-0.1-5.1,0-7.6,0c-2.2,0-2.5-0.3-1.6-2.4c3.5-8.8,7-17.6,10.6-26.4c0.6-1.5,0.6-2.7,0-4.1
						c-3.5-8.7-7-17.5-10.5-26.2c-1-2.5-0.7-2.8,2-2.8c2.2,0,4.4,0.1,6.6,0c1.7-0.1,2.8,0.5,3.9,1.8c4.2,5.3,8.5,10.5,12.7,15.8
						c0.9,1.1,1.9,1.5,3.3,1.5c9.1-0.1,18.3-0.1,27.9-0.1c-0.7-2.1-1.1-3.5-1.6-4.9c-5-14.5-10.1-28.9-15.1-43.4
						c-0.7-2.1-0.5-2.5,1.6-2.5c4.4,0,8.8-0.1,13.2,0c1,0,2.3,0.7,2.9,1.5c11.9,15.2,23.7,30.4,35.4,45.6c1.2,1.6,2.4,2.2,4.4,2.2
						c11.3-0.3,22.7-0.5,34-0.6c8-0.1,14.2,5.7,14.4,13.6c0.3,7.4-5.8,14.2-13.6,14.3c-9.4,0.2-18.8-0.1-28.3-0.3
						c-2.5,0-5.1-0.2-7.6,0c-0.9,0.1-2.1,0.6-2.7,1.3c-11.8,15.1-23.6,30.3-35.3,45.5c-1.3,1.6-2.6,2.3-4.7,2.2c-4-0.1-8,0-12,0
						c-2.4,0-2.6-0.3-1.8-2.5c5.2-15.1,10.4-30.3,15.6-45.4C1158.8-1158.8,1158.9-1159.3,1159.3-1160.5z"/>
				</g>
			</g>
			<g id="UvQccg_12_" class="st3">
				<g>
					<path class="st4" d="M3294.8-617.3c-3.6-0.2-5.6,1.1-7.6,3.8c-3.4,4.6-7.2,9-10.8,13.6c-0.8,1.1-1.7,1.6-3.1,1.5
						c-2.5-0.1-5.1,0-7.6,0c-2.2,0-2.5-0.3-1.6-2.4c3.5-8.8,7-17.6,10.6-26.4c0.6-1.5,0.6-2.7,0-4.1c-3.5-8.7-7-17.5-10.5-26.2
						c-1-2.5-0.7-2.8,2-2.8c2.2,0,4.4,0.1,6.6,0c1.7-0.1,2.8,0.5,3.9,1.8c4.2,5.3,8.5,10.5,12.7,15.8c0.9,1.1,1.9,1.5,3.3,1.5
						c9.1-0.1,18.3-0.1,27.9-0.1c-0.7-2.1-1.1-3.5-1.6-4.9c-5-14.5-10.1-28.9-15.1-43.4c-0.7-2.1-0.5-2.5,1.6-2.5
						c4.4,0,8.8-0.1,13.2,0c1,0,2.3,0.7,2.9,1.5c11.9,15.2,23.7,30.4,35.4,45.6c1.2,1.6,2.4,2.2,4.4,2.2c11.3-0.3,22.7-0.5,34-0.6
						c8-0.1,14.2,5.7,14.4,13.6c0.3,7.4-5.8,14.2-13.6,14.3c-9.4,0.2-18.8-0.1-28.3-0.3c-2.5,0-5.1-0.2-7.6,0
						c-0.9,0.1-2.1,0.6-2.7,1.3c-11.8,15.1-23.6,30.3-35.3,45.5c-1.3,1.6-2.6,2.3-4.7,2.2c-4-0.1-8,0-12,0c-2.4,0-2.6-0.3-1.8-2.5
						c5.2-15.1,10.4-30.3,15.6-45.4c0.2-0.6,0.4-1.2,0.7-2.4C3311.5-617.2,3303.1-616.9,3294.8-617.3z"/>
					<path class="st4" d="M3320.2-617.2c-8.7,0-17.1,0.3-25.5-0.1c-3.6-0.2-5.6,1.1-7.6,3.8c-3.4,4.6-7.2,9-10.8,13.6
						c-0.8,1.1-1.7,1.6-3.1,1.5c-2.5-0.1-5.1,0-7.6,0c-2.2,0-2.5-0.3-1.6-2.4c3.5-8.8,7-17.6,10.6-26.4c0.6-1.5,0.6-2.7,0-4.1
						c-3.5-8.7-7-17.5-10.5-26.2c-1-2.5-0.7-2.8,2-2.8c2.2,0,4.4,0.1,6.6,0c1.7-0.1,2.8,0.5,3.9,1.8c4.2,5.3,8.5,10.5,12.7,15.8
						c0.9,1.1,1.9,1.5,3.3,1.5c9.1-0.1,18.3-0.1,27.9-0.1c-0.7-2.1-1.1-3.5-1.6-4.9c-5-14.5-10.1-28.9-15.1-43.4
						c-0.7-2.1-0.5-2.5,1.6-2.5c4.4,0,8.8-0.1,13.2,0c1,0,2.3,0.7,2.9,1.5c11.9,15.2,23.7,30.4,35.4,45.6c1.2,1.6,2.4,2.2,4.4,2.2
						c11.3-0.3,22.7-0.5,34-0.6c8-0.1,14.2,5.7,14.4,13.6c0.3,7.4-5.8,14.2-13.6,14.3c-9.4,0.2-18.8-0.1-28.3-0.3
						c-2.5,0-5.1-0.2-7.6,0c-0.9,0.1-2.1,0.6-2.7,1.3c-11.8,15.1-23.6,30.3-35.3,45.5c-1.3,1.6-2.6,2.3-4.7,2.2c-4-0.1-8,0-12,0
						c-2.4,0-2.6-0.3-1.8-2.5c5.2-15.1,10.4-30.3,15.6-45.4C3319.7-615.4,3319.9-616,3320.2-617.2z"/>
				</g>
			</g>
			<g id="UvQccg_11_" class="st3">
				<g>
					<path class="st4" d="M2274.9-651.8c-3.6-0.2-5.6,1.1-7.6,3.8c-3.4,4.6-7.2,9-10.8,13.6c-0.8,1.1-1.7,1.6-3.1,1.5
						c-2.5-0.1-5.1,0-7.6,0c-2.2,0-2.5-0.3-1.6-2.4c3.5-8.8,7-17.6,10.6-26.4c0.6-1.5,0.6-2.7,0-4.1c-3.5-8.7-7-17.5-10.5-26.2
						c-1-2.5-0.7-2.8,2-2.8c2.2,0,4.4,0.1,6.6,0c1.7-0.1,2.8,0.5,3.9,1.8c4.2,5.3,8.5,10.5,12.7,15.8c0.9,1.1,1.9,1.5,3.3,1.5
						c9.1-0.1,18.3-0.1,27.9-0.1c-0.7-2.1-1.1-3.5-1.6-4.9c-5-14.5-10.1-28.9-15.1-43.4c-0.7-2.1-0.5-2.5,1.6-2.5
						c4.4,0,8.8-0.1,13.2,0c1,0,2.3,0.7,2.9,1.5c11.9,15.2,23.7,30.4,35.4,45.6c1.2,1.6,2.4,2.2,4.4,2.2c11.3-0.3,22.7-0.5,34-0.6
						c8-0.1,14.2,5.7,14.4,13.6c0.3,7.4-5.8,14.2-13.6,14.3c-9.4,0.2-18.8-0.1-28.3-0.3c-2.5,0-5.1-0.2-7.6,0
						c-0.9,0.1-2.1,0.6-2.7,1.3c-11.8,15.1-23.6,30.3-35.3,45.5c-1.3,1.6-2.6,2.3-4.7,2.2c-4-0.1-8,0-12,0c-2.4,0-2.6-0.3-1.8-2.5
						c5.2-15.1,10.4-30.3,15.6-45.4c0.2-0.6,0.4-1.2,0.7-2.4C2291.7-651.7,2283.3-651.5,2274.9-651.8z"/>
					<path class="st4" d="M2300.4-651.8c-8.7,0-17.1,0.3-25.5-0.1c-3.6-0.2-5.6,1.1-7.6,3.8c-3.4,4.6-7.2,9-10.8,13.6
						c-0.8,1.1-1.7,1.6-3.1,1.5c-2.5-0.1-5.1,0-7.6,0c-2.2,0-2.5-0.3-1.6-2.4c3.5-8.8,7-17.6,10.6-26.4c0.6-1.5,0.6-2.7,0-4.1
						c-3.5-8.7-7-17.5-10.5-26.2c-1-2.5-0.7-2.8,2-2.8c2.2,0,4.4,0.1,6.6,0c1.7-0.1,2.8,0.5,3.9,1.8c4.2,5.3,8.5,10.5,12.7,15.8
						c0.9,1.1,1.9,1.5,3.3,1.5c9.1-0.1,18.3-0.1,27.9-0.1c-0.7-2.1-1.1-3.5-1.6-4.9c-5-14.5-10.1-28.9-15.1-43.4
						c-0.7-2.1-0.5-2.5,1.6-2.5c4.4,0,8.8-0.1,13.2,0c1,0,2.3,0.7,2.9,1.5c11.9,15.2,23.7,30.4,35.4,45.6c1.2,1.6,2.4,2.2,4.4,2.2
						c11.3-0.3,22.7-0.5,34-0.6c8-0.1,14.2,5.7,14.4,13.6c0.3,7.4-5.8,14.2-13.6,14.3c-9.4,0.2-18.8-0.1-28.3-0.3
						c-2.5,0-5.1-0.2-7.6,0c-0.9,0.1-2.1,0.6-2.7,1.3c-11.8,15.1-23.6,30.3-35.3,45.5c-1.3,1.6-2.6,2.3-4.7,2.2c-4-0.1-8,0-12,0
						c-2.4,0-2.6-0.3-1.8-2.5c5.2-15.1,10.4-30.3,15.6-45.4C2299.9-650,2300-650.5,2300.4-651.8z"/>
				</g>
			</g>
			<g class="st3">
				<line class="st4" x1="1292.2" y1="-1884.6" x2="1232.8" y2="-1884.7"/>
				<polyline class="st4" points="1209.2,-1884.8 1193.6,-1884.8 1193.7,-1950.1 1304.1,-1950 1304,-1897.4 				"/>
				<path class="st4" d="M1304-1896.4l0-15.3l0-23h0c18.3,0,33.1,14.9,33.1,33.2l0,16.9l-21.3,0"/>
				<line class="st4" x1="1336.1" y1="-1905.1" x2="1304" y2="-1905.1"/>
				
					<ellipse transform="matrix(1 -1.615587e-03 1.615587e-03 1 3.0466 1.9702)" class="st4" cx="1221" cy="-1884.7" rx="11.8" ry="11.8"/>
				
					<ellipse transform="matrix(1 -1.615587e-03 1.615587e-03 1 3.0464 2.1042)" class="st4" cx="1304" cy="-1884.6" rx="11.8" ry="11.8"/>
			</g>
			<g class="st3">
				<line class="st4" x1="2921.5" y1="-1321.9" x2="2862.1" y2="-1322"/>
				<polyline class="st4" points="2838.5,-1322 2822.9,-1322 2823,-1387.4 2933.4,-1387.2 2933.3,-1334.7 				"/>
				<path class="st4" d="M2933.3-1333.6l0-15.3l0-23h0c18.3,0,33.1,14.9,33.1,33.2l0,16.9l-21.3,0"/>
				<line class="st4" x1="2965.4" y1="-1342.3" x2="2933.3" y2="-1342.4"/>
				
					<ellipse transform="matrix(1 -1.615587e-03 1.615587e-03 1 2.1395 4.6032)" class="st4" cx="2850.3" cy="-1322" rx="11.8" ry="11.8"/>
				
					<ellipse transform="matrix(1 -1.615587e-03 1.615587e-03 1 2.1394 4.7372)" class="st4" cx="2933.3" cy="-1321.9" rx="11.8" ry="11.8"/>
			</g>
			<g class="st3">
				<line class="st4" x1="1957.7" y1="-944.9" x2="1957.8" y2="-1004.4"/>
				<polyline class="st4" points="1957.9,-1027.9 1957.9,-1043.6 2023.2,-1043.5 2023.1,-933.1 1970.5,-933.2 				"/>
				<path class="st4" d="M1969.5-933.2l15.3,0l23,0v0c0,18.3-14.9,33.1-33.2,33.1l-16.9,0l0-21.3"/>
				<line class="st4" x1="1978.2" y1="-901" x2="1978.2" y2="-933.1"/>
				
					<ellipse transform="matrix(1 -1.615587e-03 1.615587e-03 1 1.6442 3.1617)" class="st4" cx="1957.8" cy="-1016.1" rx="11.8" ry="11.8"/>
				
					<ellipse transform="matrix(1 -1.615587e-03 1.615587e-03 1 1.5102 3.1616)" class="st4" cx="1957.7" cy="-933.2" rx="11.8" ry="11.8"/>
			</g>
			<g class="st3">
				<line class="st4" x1="837.1" y1="-835.9" x2="837" y2="-776.5"/>
				<polyline class="st4" points="837,-753 836.9,-737.3 771.6,-737.4 771.8,-847.8 824.3,-847.7 				"/>
				<path class="st4" d="M825.4-847.7l-15.3,0l-23,0v0c0-18.3,14.9-33.1,33.2-33.1l16.9,0l0,21.3"/>
				<line class="st4" x1="816.7" y1="-879.9" x2="816.6" y2="-847.7"/>
				
					<ellipse transform="matrix(1 -1.615587e-03 1.615587e-03 1 1.2366 1.3512)" class="st4" cx="837" cy="-764.7" rx="11.8" ry="11.8"/>
				
					<ellipse transform="matrix(1 -1.615587e-03 1.615587e-03 1 1.3706 1.3513)" class="st4" cx="837.1" cy="-847.7" rx="11.8" ry="11.8"/>
			</g>
			<path class="st1" d="M3409.8-629.1h187.6c11,0,20-9,20-20v-600.8c0-11,9-20,20-20"/>
			<path class="st1" d="M3199.6-1792.2h-50.4c-11,0-20,9-20,20v1123.1c0,11,9,20,20,20h124.6"/>
			<path class="st1" d="M3530.3-1449.9v-322.3c0-11-9-20-20-20h-100.6"/>
			<line class="st1" x1="2966" y1="-1357" x2="3436.3" y2="-1357"/>
			<path class="st1" d="M2732.3-946.8V-1337c0-11,9-20,20-20h69.5"/>
			<path class="st1" d="M2159.1-1959.7h196.1c11,0,20,9,20,20v556.7h-85.9"/>
			<path class="st1" d="M1248.8-1172.6h643.8c11,0,20-9,20-20v-747.2c0-11,9-20,20-20h45.5"/>
			<path class="st1" d="M809.6-879.1v-273.5c0-11,9-20,20-20h281.5"/>
			<path class="st1" d="M1235.8-538.2H829.6c-11,0-20-9-20-20v-179.1"/>
			<path class="st1" d="M1605.1-843.4v285.2c0,11-9,20-20,20h-140.8"/>
			<line class="st1" x1="1605.1" y1="-1519.6" x2="1605.1" y2="-1024.3"/>
			<path class="st1" d="M1333.8-1918h251.4c11,0,20,9,20,20v244.6"/>
			<path class="st1" d="M399.9-1193v107.9c0,11,9,20,20,20h534.9c11,0,20-9,20-20V-1898c0-11,9-20,20-20H1195"/>
			<line class="st1" x1="400.2" y1="-2053.2" x2="399.9" y2="-1330.4"/>
			<line class="st1" x1="764.1" y1="-1568.3" x2="764.3" y2="-2054.2"/>
			<line class="st1" x1="400.2" y1="-531.2" x2="400.2" y2="-485.1"/>
			<path class="st1" d="M764.3-485.1l0-74.4c0-11-9-20-20-20H473.7"/>
			<path class="st2" d="M450.5-591.2c-0.2,0-0.5,0-0.9,0c0.7-3.3,1-6.7,1-10c0.1-13.7-4.6-25.6-14.3-35.5
				c-9.7-9.9-21.4-14.9-35.2-15c-13.7-0.1-25.6,4.6-35.5,14.3c-9.9,9.7-14.9,21.4-15,35.2c0,0.2,0,0.4,0,0.6
				c-8.6,1-15.7,4.7-21.5,11.2c-5.8,6.5-8.7,14.1-8.8,22.9c-0.1,8.7,2.7,16.4,8.4,22.9c5.7,6.5,12.8,10.4,21.3,11.8l0,0.6l100,1
				c8.3,0.1,15.4-2.8,21.3-8.5c5.9-5.8,8.9-12.8,9-21.2c0.1-8.3-2.8-15.4-8.5-21.3C465.9-588.1,458.8-591.1,450.5-591.2z"/>
			<path class="st1" d="M668.4-1474.8H184c-11,0-20,9-20,20v165c0,11-9,20-20,20H0"/>
			<line class="st1" x1="2732.3" y1="-487.8" x2="2732.3" y2="-764.7"/>
			<path class="st1" d="M2560.9-2050.2v895.5c0,11,9,20,20,20h398.3c11,0,20,9,20,20v632.4"/>
			<path class="st1" d="M2999.2-2050.2v378v17.4c0,11-9,20-20,20h-226.9c-11,0-20-9-20-20v-17.4v-377"/>
			<path class="st1" d="M2389.9-664.2h151c11,0,20,9,20,20v162.3"/>
			<path class="st1" d="M1988.2-902.9v218.8c0,11,9,20,20,20l-0.4,0h247"/>
			<path class="st1" d="M2108.4-1383h-100.2c-11,0-20,9-20,20v319.5"/>
		</g>
		<g>
			<path class="st1" d="M2560.9-3618.5v895.5c0,11,9,20,20,20h398.3c11,0,20,9,20,20v632.4"/>
			<path class="st1" d="M2389.9-2232.5h151c11,0,20,9,20,20v162.3"/>
		</g>
	</g>
</pattern>
<rect x="-3" class="st5" width="3632.9" height="1571.3"/>
</svg>
